<mxfile host="app.diagrams.net" agent="Mozilla/5.0 (Windows NT 10.0; Win64; x64) AppleWebKit/537.36 (KHTML, like Gecko) Chrome/132.0.0.0 Safari/537.36" version="26.0.14">
  <diagram name="第 1 页" id="hbEEyPEUSp0d5otVwwGE">
    <mxGraphModel dx="1434" dy="738" grid="1" gridSize="10" guides="1" tooltips="1" connect="1" arrows="1" fold="1" page="1" pageScale="1" pageWidth="827" pageHeight="1169" math="0" shadow="0">
      <root>
        <mxCell id="0" />
        <mxCell id="1" parent="0" />
        <mxCell id="7bjpnatf0TC-jR-XUUpq-1" value="智慧体" style="rounded=0;whiteSpace=wrap;html=1;" vertex="1" parent="1">
          <mxGeometry x="340" y="230" width="60" height="60" as="geometry" />
        </mxCell>
        <mxCell id="7bjpnatf0TC-jR-XUUpq-2" value="非智慧体" style="rounded=0;whiteSpace=wrap;html=1;" vertex="1" parent="1">
          <mxGeometry x="340" y="420" width="60" height="60" as="geometry" />
        </mxCell>
        <mxCell id="7bjpnatf0TC-jR-XUUpq-3" value="" style="shape=curlyBracket;whiteSpace=wrap;html=1;rounded=1;labelPosition=left;verticalLabelPosition=middle;align=right;verticalAlign=middle;" vertex="1" parent="1">
          <mxGeometry x="310" y="260" width="20" height="220" as="geometry" />
        </mxCell>
        <mxCell id="7bjpnatf0TC-jR-XUUpq-4" value="自然" style="text;strokeColor=none;fillColor=none;html=1;fontSize=24;fontStyle=1;verticalAlign=middle;align=center;" vertex="1" parent="1">
          <mxGeometry x="210" y="350" width="100" height="40" as="geometry" />
        </mxCell>
        <mxCell id="7bjpnatf0TC-jR-XUUpq-5" value="" style="shape=curlyBracket;whiteSpace=wrap;html=1;rounded=1;labelPosition=left;verticalLabelPosition=middle;align=right;verticalAlign=middle;" vertex="1" parent="1">
          <mxGeometry x="404" y="200" width="20" height="120" as="geometry" />
        </mxCell>
        <mxCell id="7bjpnatf0TC-jR-XUUpq-7" value="人类" style="rounded=1;whiteSpace=wrap;html=1;" vertex="1" parent="1">
          <mxGeometry x="424" y="205" width="120" height="30" as="geometry" />
        </mxCell>
        <mxCell id="7bjpnatf0TC-jR-XUUpq-8" value="AI" style="rounded=1;whiteSpace=wrap;html=1;" vertex="1" parent="1">
          <mxGeometry x="424" y="245" width="120" height="30" as="geometry" />
        </mxCell>
        <mxCell id="7bjpnatf0TC-jR-XUUpq-9" value="其他" style="rounded=1;whiteSpace=wrap;html=1;" vertex="1" parent="1">
          <mxGeometry x="424" y="285" width="120" height="30" as="geometry" />
        </mxCell>
      </root>
    </mxGraphModel>
  </diagram>
</mxfile>
